<svg width="25" height="25" viewBox="0 0 25 25" fill="none" xmlns="http://www.w3.org/2000/svg">
<path d="M24.8021 7.41865C24.7882 6.37725 24.5933 5.34621 24.226 4.37165C23.9075 3.5496 23.421 2.80304 22.7976 2.17966C22.1742 1.55628 21.4276 1.06979 20.6056 0.75127C19.6436 0.390136 18.6272 0.194864 17.5998 0.17377C16.2771 0.114645 15.8577 0.0981445 12.5 0.0981445C9.14223 0.0981445 8.71185 0.0981446 7.39873 0.17377C6.37182 0.195019 5.35595 0.390288 4.39435 0.75127C3.57218 1.06957 2.8255 1.55598 2.2021 2.17939C1.57869 2.8028 1.09227 3.54947 0.773974 4.37165C0.412117 5.33295 0.217269 6.34905 0.19785 7.37602C0.138725 8.70015 0.12085 9.11952 0.12085 12.4773C0.12085 15.835 0.12085 16.264 0.19785 17.5785C0.218475 18.607 0.412349 19.6218 0.773974 20.5856C1.09281 21.4076 1.57958 22.1539 2.2032 22.7771C2.82682 23.4002 3.57356 23.8864 4.39572 24.2046C5.3547 24.5803 6.37074 24.7895 7.4001 24.8234C8.72423 24.8825 9.1436 24.9004 12.5014 24.9004C15.8591 24.9004 16.2895 24.9004 17.6026 24.8234C18.6299 24.8032 19.6463 24.6083 20.6083 24.2473C21.4302 23.9284 22.1765 23.4418 22.7999 22.8184C23.4232 22.1951 23.9098 21.4487 24.2287 20.6269C24.5904 19.6644 24.7842 18.6496 24.8048 17.6198C24.864 16.297 24.8818 15.8776 24.8818 12.5185C24.8791 9.16077 24.8791 8.73452 24.8021 7.41865ZM12.4917 18.827C8.97998 18.827 6.1351 15.9821 6.1351 12.4704C6.1351 8.95865 8.97998 6.11377 12.4917 6.11377C14.1776 6.11377 15.7944 6.78348 16.9865 7.97558C18.1786 9.16768 18.8484 10.7845 18.8484 12.4704C18.8484 14.1563 18.1786 15.7731 16.9865 16.9652C15.7944 18.1573 14.1776 18.827 12.4917 18.827ZM19.1014 7.36089C18.9066 7.36108 18.7138 7.32286 18.5339 7.24843C18.354 7.17401 18.1905 7.06483 18.0528 6.92716C17.9152 6.78948 17.806 6.62601 17.7316 6.44609C17.6571 6.26617 17.6189 6.07335 17.6191 5.87864C17.6191 5.68408 17.6574 5.49143 17.7319 5.31168C17.8063 5.13192 17.9155 4.9686 18.053 4.83102C18.1906 4.69345 18.3539 4.58432 18.5337 4.50986C18.7134 4.4354 18.9061 4.39708 19.1007 4.39708C19.2952 4.39708 19.4879 4.4354 19.6676 4.50986C19.8474 4.58432 20.0107 4.69345 20.1483 4.83102C20.2859 4.9686 20.395 5.13192 20.4694 5.31168C20.5439 5.49143 20.5822 5.68408 20.5822 5.87864C20.5822 6.69814 19.9195 7.36089 19.1014 7.36089Z" fill="black"/>
</svg>
