<svg width="18" height="18" viewBox="0 0 18 18" fill="none" xmlns="http://www.w3.org/2000/svg">
<path d="M16.8439 3.45705L14.5559 1.21571C14.2766 0.941862 13.9027 0.788086 13.5074 0.788086C13.1121 0.788086 12.7383 0.939756 12.459 1.21571L9.99473 3.62768C9.71543 3.90153 9.55859 4.27017 9.55859 4.65777C9.55859 5.04748 9.71328 5.4119 9.99473 5.68786L11.9197 7.57741C11.4812 8.57924 10.8511 9.4895 10.0635 10.259C9.275 11.0363 8.35332 11.6493 7.33066 12.0833L5.40566 10.1937C5.12637 9.91987 4.75254 9.76609 4.35723 9.76609C4.16224 9.76538 3.96907 9.80284 3.78904 9.87627C3.60901 9.9497 3.44574 10.0576 3.30879 10.1937L0.842383 12.6057C0.563086 12.8795 0.40625 13.2482 0.40625 13.6358C0.40625 14.0255 0.560938 14.3899 0.842383 14.6659L3.12832 16.9072C3.60527 17.3749 4.2627 17.6424 4.9373 17.6424C5.07695 17.6424 5.2123 17.6318 5.3498 17.6087C8.19434 17.1495 11.0174 15.6644 13.2969 13.4314C15.5742 11.1943 17.0867 8.42634 17.5594 5.6352C17.6947 4.84314 17.424 4.02792 16.8439 3.45705ZM16.0361 5.38452C15.6172 7.86811 14.2551 10.3454 12.2033 12.3571C10.1516 14.3688 7.62715 15.7044 5.09414 16.1152C4.77617 16.1678 4.44961 16.0625 4.21758 15.8371L1.97246 13.6358L4.35293 11.2996L6.92676 13.8275L6.94609 13.8464L7.41016 13.6779C8.81723 13.1707 10.095 12.3695 11.1549 11.3299C12.2147 10.2904 13.0314 9.03726 13.5482 7.65746L13.7201 7.20245L11.1248 4.65988L13.5053 2.32374L15.7504 4.52506C15.9824 4.75256 16.0898 5.07276 16.0361 5.38452Z" fill="black"/>
</svg>
